<svg width="28" height="31" viewBox="0 0 28 31" fill="none" xmlns="http://www.w3.org/2000/svg">
<path d="M20 25.5H8C7.46957 25.5 6.96086 25.2893 6.58579 24.9142C6.21071 24.5391 6 24.0304 6 23.5V15.5H22V23.5C22 24.0304 21.7893 24.5391 21.4142 24.9142C21.0391 25.2893 20.5304 25.5 20 25.5Z" stroke="#509DAC" stroke-width="2.3" stroke-linecap="round" stroke-linejoin="round"/>
<path d="M14 3.5C11.8783 3.5 9.84344 4.34285 8.34315 5.84315C6.84286 7.34344 6 9.37827 6 11.5H22C22 10.4494 21.7931 9.40914 21.391 8.43853C20.989 7.46793 20.3997 6.58601 19.6569 5.84315C18.914 5.10028 18.0321 4.511 17.0615 4.10896C16.0909 3.70693 15.0506 3.5 14 3.5V3.5Z" stroke="#509DAC" stroke-width="2.3" stroke-linecap="round" stroke-linejoin="round"/>
<path d="M2 21.5V19.5C2 18.4391 2.42143 17.4217 3.17157 16.6716C3.92172 15.9214 4.93913 15.5 6 15.5H22C23.0609 15.5 24.0783 15.9214 24.8284 16.6716C25.5786 17.4217 26 18.4391 26 19.5V21.5" stroke="#509DAC" stroke-width="2.3" stroke-linecap="round" stroke-linejoin="round"/>
<path d="M8 25.5V29.6653" stroke="#509DAC" stroke-width="2.3" stroke-linecap="round" stroke-linejoin="round"/>
<path d="M20 25.5V29.6653" stroke="#509DAC" stroke-width="2.3" stroke-linecap="round" stroke-linejoin="round"/>
<path d="M8.59867 5.59733L5 2" stroke="#509DAC" stroke-width="2.3" stroke-linecap="round" stroke-linejoin="round"/>
<path d="M19.4014 5.59733L23 2" stroke="#509DAC" stroke-width="2.3" stroke-linecap="round" stroke-linejoin="round"/>
</svg>
