<svg width="34" height="34" viewBox="0 0 34 34" fill="none" xmlns="http://www.w3.org/2000/svg">
	<path d="M30.8668 11.6667V3.13333C30.8668 2.56754 30.642 2.02492 30.2419 1.62484C29.8418 1.22476 29.2992 1 28.7334 1H3.13334C2.56754 1 2.02492 1.22476 1.62484 1.62484C1.22476 2.02492 1 2.56754 1 3.13333V26.6C1 27.1658 1.22476 27.7084 1.62484 28.1085C2.02492 28.5086 2.56754 28.7333 3.13334 28.7333H11.6667" stroke="current" stroke-width="2" stroke-linecap="round" stroke-linejoin="round" />
	<path d="M1 7.40001H30.8668" stroke="current" stroke-width="2" stroke-linecap="round" stroke-linejoin="round" />
	<path d="M26.5996 26.6H32.9996V33H26.5996V26.6Z" stroke="current" stroke-width="2" stroke-linecap="round" stroke-linejoin="round" />
	<path d="M15.9336 26.6H22.3336V33H15.9336V26.6Z" stroke="current" stroke-width="2" stroke-linecap="round" stroke-linejoin="round" />
	<path d="M22.333 15.9333H28.733V22.3333H22.333V15.9333Z" stroke="current" stroke-width="2" stroke-linecap="round" stroke-linejoin="round" />
</svg>
