<svg width="29" height="34" viewBox="0 0 29 34" fill="none" xmlns="http://www.w3.org/2000/svg">
<path d="M27 29.9829C27 30.5133 26.8119 31.0221 26.477 31.3971C26.1421 31.7722 25.6879 31.9829 25.2143 31.9829H3.78571C3.31211 31.9829 2.85791 31.7722 2.52302 31.3971C2.18814 31.0221 2 30.5133 2 29.9829V3.98291C2 3.45248 2.18814 2.94377 2.52302 2.5687C2.85791 2.19362 3.31211 1.98291 3.78571 1.98291H21.6964C22.1626 1.98261 22.6103 2.18646 22.944 2.55091L26.4607 6.39491C26.6314 6.58122 26.767 6.8039 26.8596 7.04984C26.9522 7.29578 27 7.55999 27 7.82691V29.9829Z" stroke="#509DAC" stroke-width="2.3" stroke-linecap="round" stroke-linejoin="round"/>
<path d="M7.41064 11.9829H21.6964" stroke="#509DAC" stroke-width="2.3" stroke-linecap="round" stroke-linejoin="round"/>
<path d="M7.41064 17.9829H21.6964" stroke="#509DAC" stroke-width="2.3" stroke-linecap="round" stroke-linejoin="round"/>
<path d="M7.41064 23.9829H14.5535" stroke="#509DAC" stroke-width="2.3" stroke-linecap="round" stroke-linejoin="round"/>
</svg>
