<svg width="101" height="101" viewBox="0 0 101 101" fill="none" xmlns="http://www.w3.org/2000/svg">
<path d="M50.0088 0C41.6634 0.000720687 33.4508 2.09015 26.1197 6.07783C18.7886 10.0655 12.5722 15.8246 8.03695 22.8302C3.50174 29.8358 0.792022 37.8651 0.154795 46.1862C-0.482431 54.5073 0.973096 62.8555 4.3887 70.47C4.14896 70.76 3.8887 71.05 3.62894 71.33C2.13944 72.9452 1.06024 74.895 0.482367 77.0148C-0.0955046 79.1346 -0.155094 81.3623 0.308625 83.51C0.917174 86.5697 1.83869 89.5588 3.05862 92.43C4.04163 94.6703 5.65292 96.5776 7.69748 97.9212C9.74203 99.2647 12.1322 99.9868 14.5786 100C16.0416 99.9173 17.4921 99.6835 18.907 99.3023C20.3888 99.0267 21.8852 98.8356 23.3887 98.73C26.6626 98.5362 29.9036 97.9692 33.0488 97.04C39.9114 99.5141 47.2322 100.457 54.4977 99.8014C61.7631 99.1463 68.7972 96.9093 75.1065 93.2474C81.4157 89.5856 86.8473 84.5875 91.0202 78.604C95.1931 72.6204 98.0062 65.7962 99.2621 58.6102C100.518 51.4242 100.186 44.0504 98.2904 37.0062C96.3944 29.962 92.9801 23.4179 88.2869 17.8331C83.5937 12.2483 77.7353 7.75807 71.1228 4.67741C64.5103 1.59674 57.3038 0.000273408 50.0088 0V0ZM26.9087 94.33C24.7427 94.6254 22.563 94.8041 20.3944 95.0783C19.2791 95.2193 18.153 95.3656 17.0539 95.6058C16.0922 95.8686 15.0989 95.9977 14.1019 95.9894C12.8864 95.9113 11.7011 95.5776 10.6234 95.0101C9.54564 94.4426 8.59978 93.6541 7.84758 92.6962C7.39379 92.1172 7.01457 91.4835 6.71882 90.81C5.6097 88.1969 4.77514 85.4756 4.22859 82.69C3.9049 81.2251 3.92519 79.7051 4.28788 78.2494C4.65056 76.7936 5.34576 75.4418 6.31888 74.3C6.3887 74.22 6.46878 74.14 6.53861 74.06C7.44896 73.0918 8.30058 72.0699 9.0889 71C13.7588 64.66 16.0186 57.25 17.4488 52.55C17.7286 51.65 17.9688 50.85 18.1988 50.17C18.3207 49.8049 18.5334 49.4767 18.8167 49.2161C19.1 48.9555 19.4449 48.7711 19.8189 48.68C20.1737 48.5896 20.5457 48.5918 20.8994 48.6863C21.2531 48.7809 21.5766 48.9646 21.8389 49.22C23.7788 51.09 25.5489 56.87 25.7686 59.29C25.794 59.9334 25.9799 60.5602 26.3094 61.1134C26.6388 61.6667 27.1013 62.1288 27.6549 62.4577C28.2084 62.7866 28.8354 62.9719 29.4788 62.9968C30.1222 63.0216 30.7616 62.8852 31.3389 62.6L45.959 56.27C46.7117 55.9416 47.5622 55.9175 48.3323 56.2028C49.1023 56.4881 49.7319 57.0605 50.0889 57.8C50.2857 58.1896 50.3981 58.6162 50.4188 59.0522C50.4395 59.4881 50.368 59.9235 50.209 60.33C50.0552 60.739 49.8185 61.1117 49.5138 61.4249C49.2092 61.7381 48.8431 61.9849 48.4385 62.15L36.709 66.98C36.1512 67.1945 35.6498 67.5335 35.2428 67.9711C34.8357 68.4087 34.534 68.9334 34.3603 69.5052C34.1867 70.0771 34.1459 70.681 34.2409 71.271C34.336 71.861 34.5643 72.4216 34.9087 72.91C36.5586 75.36 40.2588 81.61 39.1187 86.6C38.8431 87.7146 38.3319 88.7572 37.6195 89.6576C36.9071 90.558 36.0101 91.2954 34.9888 91.82C34.3714 92.1803 33.7299 92.4977 33.0689 92.77C31.0903 93.55 29.0201 94.0742 26.9087 94.33ZM50.0088 96C46.0357 96.0038 42.079 95.4894 38.2388 94.47C40.6584 92.8325 42.3666 90.3379 43.0186 87.49C44.4488 81.26 40.6885 74.36 38.2388 70.68L49.9688 65.84C50.8466 65.4781 51.6439 64.9459 52.3148 64.2741C52.9858 63.6023 53.517 62.8042 53.8777 61.926C54.2385 61.0478 54.4217 60.1068 54.4168 59.1574C54.4119 58.2079 54.2189 57.2689 53.8491 56.3945C53.4792 55.52 52.9398 54.7275 52.2619 54.0627C51.5841 53.3979 50.7812 52.874 49.8998 52.5212C49.0183 52.1684 48.0757 51.9937 47.1264 52.0072C46.177 52.0208 45.2398 52.2222 44.3687 52.6L29.7486 58.93C29.5288 56.46 27.7286 49.35 24.6187 46.34C23.8695 45.6168 22.9487 45.096 21.9428 44.8266C20.9369 44.5572 19.8791 44.548 18.8687 44.8C17.8357 45.0453 16.8827 45.5508 16.1004 46.2684C15.318 46.9861 14.7323 47.892 14.399 48.9C14.169 49.61 13.9087 50.44 13.629 51.38C12.419 55.34 10.589 61.35 7.15874 66.72C5.06823 61.3939 3.99963 55.7217 4.00882 50C4.00882 40.9021 6.70668 32.0084 11.7612 24.4438C16.8158 16.8791 24 10.9832 32.4054 7.50154C40.8108 4.01991 50.0599 3.10896 58.983 4.88388C67.9061 6.6588 76.1025 11.0399 82.5357 17.4731C88.9689 23.9063 93.35 32.1027 95.1249 41.0258C96.8999 49.949 95.9889 59.198 92.5073 67.6034C89.0257 76.0088 83.1297 83.1931 75.5651 88.2476C68.0004 93.3021 59.1068 96 50.0088 96Z" fill="#509DAC"/>
<path d="M63.7509 23.3537C62.9739 23.3535 62.2142 23.5838 61.568 24.0153C60.9218 24.4469 60.4181 25.0604 60.1206 25.7783C59.8231 26.4961 59.7452 27.2861 59.8967 28.0483C60.0482 28.8104 60.4222 29.5105 60.9716 30.06C61.521 30.6096 62.2211 30.9838 62.9832 31.1355C63.7453 31.2872 64.5353 31.2094 65.2532 30.9121C65.9711 30.6148 66.5848 30.1112 67.0165 29.4651C67.4482 28.819 67.6787 28.0594 67.6787 27.2823C67.6777 26.2409 67.2636 25.2423 66.5272 24.5058C65.7909 23.7692 64.7924 23.3549 63.7509 23.3537Z" fill="#509DAC"/>
<path d="M32.2665 23.3537C31.4895 23.3534 30.7297 23.5836 30.0835 24.0151C29.4372 24.4466 28.9335 25.0601 28.6359 25.778C28.3383 26.4958 28.2603 27.2858 28.4117 28.048C28.5632 28.8101 28.9372 29.5103 29.4866 30.0599C30.036 30.6095 30.736 30.9838 31.4982 31.1355C32.2603 31.2872 33.0503 31.2094 33.7682 30.9121C34.4862 30.6148 35.0999 30.1113 35.5316 29.4652C35.9633 28.8191 36.1938 28.0594 36.1938 27.2823C36.1928 26.2409 35.7788 25.2425 35.0425 24.506C34.3063 23.7694 33.3079 23.3551 32.2665 23.3537Z" fill="#509DAC"/>
<path d="M56.7188 44.9866C56.72 45.2873 56.6533 45.5844 56.5236 45.8557C56.394 46.127 56.2047 46.3655 55.97 46.5535C55.7353 46.7414 55.4612 46.8739 55.1681 46.9411C54.875 47.0083 54.5706 47.0085 54.2774 46.9416C49.6095 45.8362 44.7479 45.8363 40.08 46.9416C39.7869 47.0085 39.4824 47.0084 39.1893 46.9412C38.8963 46.874 38.6221 46.7415 38.3874 46.5535C38.1527 46.3656 37.9635 46.1271 37.8338 45.8558C37.7042 45.5845 37.6375 45.2874 37.6387 44.9867C37.6393 44.5302 37.7948 44.0874 38.0799 43.7308C38.3649 43.3742 38.7625 43.1249 39.2077 43.0237C44.4523 41.8089 49.9051 41.8089 55.1497 43.0237C55.5949 43.1249 55.9925 43.3742 56.2776 43.7308C56.5626 44.0873 56.7182 44.5301 56.7188 44.9866Z" fill="#509DAC"/>
</svg>
