<svg width="184" height="46" viewBox="0 0 184 46" fill="none" xmlns="http://www.w3.org/2000/svg">
<path d="M52.7729 14.3098H54.965L59.7433 28.8004L59.9944 29.7685H60.0472L60.2455 28.7748L64.7728 14.3124H66.9648L71.4795 28.7748L71.703 29.7685H71.7432L71.9943 28.7084L76.76 14.3124H78.9646L72.8128 32.5756H70.7538L65.8701 17.2396L60.9712 32.5756H58.9248L52.7729 14.3098Z" fill="url(#paint0_linear)"/>
<path d="M91.9285 26.2356H80.6017C80.8528 29.191 82.9921 31.0301 85.3147 31.0301C87.1753 31.0301 88.6292 30.1718 89.2745 28.5192H91.5193C90.7283 31.0173 88.3379 32.9509 85.3549 32.9509C81.5257 32.9509 78.5703 29.7401 78.5703 25.7401C78.5703 21.7375 81.5282 18.5293 85.3549 18.5293C89.1841 18.5293 91.9687 21.7401 91.9687 25.3927C91.9687 25.6175 91.9536 25.7912 91.9285 26.2356ZM89.9072 24.4093C89.7741 22.302 87.7553 20.4603 85.3273 20.4603C83.1628 20.4603 81.1817 21.8984 80.6946 24.4093H89.9072Z" fill="url(#paint1_linear)"/>
<path d="M97.0235 29.4975V32.5728H95.0825V13.6633H97.1164V20.0695L97.0637 21.9623C97.9475 20.0414 99.9161 18.5369 102.357 18.5369C106.146 18.5369 109.011 21.7477 109.011 25.735C109.011 29.7503 106.133 32.9458 102.384 32.9458C100.099 32.9509 98.0002 31.6329 97.0235 29.4975ZM107.004 25.7375C107.004 22.6749 104.787 20.4603 102.04 20.4603C99.3084 20.4603 97.0888 22.7847 97.0888 25.7375C97.0888 28.772 99.3336 31.0275 102.053 31.0275C104.76 31.03 107.004 28.8665 107.004 25.7375Z" fill="url(#paint2_linear)"/>
<path d="M111.123 26.4222H114.384C114.465 29.094 116.285 29.9395 117.922 29.9395C119.69 29.9395 121.184 28.555 121.184 26.6751C121.184 24.9024 119.798 23.5052 117.5 23.5052H115.15V21.827L118.927 17.0734L118.954 17.0198H112.089V14.3071H122.914V16.0517L118.743 21.0198L118.65 21.1552C122.148 21.4515 124.486 23.0633 124.486 26.7696C124.486 30.2869 121.648 32.9868 117.844 32.9868C114.45 32.9893 111.188 31.163 111.123 26.4222Z" fill="url(#paint3_linear)"/>
<path d="M21.3759 8.91821C14.3892 8.91821 8.70361 14.702 8.70361 21.8094C8.70361 28.9168 14.3865 34.6977 21.3732 34.6977C28.36 34.6977 34.0455 28.9168 34.0455 21.8094C34.0455 14.702 28.3627 8.91821 21.3759 8.91821ZM21.3759 31.9344C15.8887 31.9344 11.4228 27.3914 11.4228 21.8094C11.4228 16.2246 15.8887 11.6844 21.3759 11.6844C26.8632 11.6844 31.3291 16.2273 31.3291 21.8094C31.3291 27.3914 26.8632 31.9344 21.3759 31.9344Z" fill="url(#paint4_linear)"/>
<path d="M42.249 11.336C42.249 9.39339 40.6952 7.81274 38.7855 7.81274C36.8758 7.81274 35.322 9.39339 35.322 11.336C35.322 12.9167 36.357 14.2404 37.7668 14.688V29.0824C37.7668 30.5968 36.9655 32.0088 35.6752 32.766L25.9067 38.5028L26.9254 40.299L36.6938 34.5622C38.6117 33.4347 39.8042 31.3346 39.8042 29.0824V14.688C41.214 14.2404 42.249 12.9167 42.249 11.336ZM38.7828 12.7868C37.995 12.7868 37.3567 12.1347 37.3567 11.336C37.3567 10.5347 37.9977 9.88527 38.7828 9.88527C39.5679 9.88527 40.2089 10.5374 40.2089 11.336C40.2117 12.1374 39.5706 12.7868 38.7828 12.7868Z" fill="url(#paint5_linear)"/>
<path d="M7.08178 11.336C7.08178 11.1508 7.05462 10.9712 7.02745 10.7916L19.1103 3.57919C20.4006 2.82202 22.0033 2.82202 23.2937 3.57919L33.0132 9.28832L34.0319 7.49212L24.3123 1.78299C22.3945 0.655538 20.0095 0.655532 18.0862 1.78575L6.13102 8.92355C5.49808 8.241 4.60979 7.80991 3.61828 7.80991C1.70861 7.80991 0.154785 9.39056 0.154785 11.3332C0.154785 13.2759 1.70861 14.8565 3.61828 14.8565C5.52796 14.862 7.08178 13.2786 7.08178 11.336ZM2.18942 11.336C2.18942 10.5346 2.83051 9.8852 3.61557 9.8852C4.40334 9.8852 5.04171 10.5374 5.04171 11.336C5.04171 12.1373 4.40063 12.7867 3.61557 12.7867C2.83051 12.7867 2.18942 12.1373 2.18942 11.336Z" fill="url(#paint6_linear)"/>
<path d="M21.3756 38.8177C20.3949 38.8177 19.5148 39.2377 18.8846 39.9065L6.73108 32.7687C5.44076 32.0115 4.6394 30.5994 4.6394 29.0851V17.49H2.60205V29.0851C2.60205 31.3373 3.79458 33.4374 5.71241 34.5649L17.9718 41.7662C17.9392 41.9569 17.9148 42.1476 17.9148 42.3465C17.9148 44.2892 19.4686 45.8698 21.3783 45.8698C23.288 45.8698 24.8418 44.2892 24.8418 42.3465C24.8418 40.4039 23.2852 38.8177 21.3756 38.8177ZM21.3756 43.7918C20.5878 43.7918 19.9494 43.1396 19.9494 42.341C19.9494 41.5396 20.5905 40.8902 21.3756 40.8902C22.1606 40.8902 22.8017 41.5424 22.8017 42.341C22.8017 43.1424 22.1606 43.7918 21.3756 43.7918Z" fill="url(#paint7_linear)"/>
<path d="M17.9587 25.0312C16.9292 25.0312 16.0952 25.8796 16.0952 26.9269C16.0952 27.9742 16.9292 28.8198 17.9587 28.8198C18.9883 28.8198 19.8222 27.9715 19.8222 26.9269C19.8222 25.8796 18.9883 25.0312 17.9587 25.0312Z" fill="url(#paint8_linear)"/>
<path d="M23.0409 20.1455V21.0602H23.7444V20.1455C24.2117 20.082 24.6382 19.8996 24.994 19.6205L25.6297 20.2671L26.1268 19.7614L25.4911 19.1148C25.7655 18.7528 25.9448 18.319 26.0073 17.8437H26.9064V17.1279H26.0073C25.9448 16.6526 25.7655 16.2188 25.4911 15.8568L26.1268 15.2102L25.6297 14.7045L24.994 15.3511C24.6354 15.072 24.2117 14.8896 23.7444 14.8261V13.9114H23.0409V14.8261C22.5736 14.8896 22.1472 15.072 21.7913 15.3511L21.1556 14.7045L20.6585 15.2102L21.2942 15.8568C21.0198 16.2216 20.8405 16.6526 20.7781 17.1279H19.8789V17.8437H20.7781C20.8405 18.319 21.0198 18.7528 21.2942 19.1148L20.6585 19.7614L21.1556 20.2671L21.7913 19.6205C22.1499 19.8996 22.5736 20.082 23.0409 20.1455Z" fill="url(#paint9_linear)"/>
<path d="M26.3306 28.7535C29.278 26.7252 29.3215 23.1743 29.3215 23.1743C29.0172 21.0354 27.7079 23.9149 24.3367 25.5784C21.0661 27.1895 23.3805 30.7818 26.3306 28.7535Z" fill="url(#paint10_linear)"/>
<path d="M17.5727 16.8267C17.4125 15.4976 15.4946 15.5445 15.3262 16.8737C15.2447 17.5148 15.2447 18.3079 14.6281 19.0982C13.4111 20.6595 13.3948 22.3756 14.6933 22.6353C15.9917 22.8951 16.7143 21.2067 16.717 19.8443C16.7198 18.482 17.6515 17.9818 17.5836 16.9235C17.5809 16.8903 17.5782 16.8571 17.5727 16.8267Z" fill="url(#paint11_linear)"/>
<path d="M28.2349 24.0998V23.3592H28.4142C29.02 22.5744 29.3541 21.6266 29.2726 20.8943C29.2346 20.5516 29.1042 20.2863 28.8923 20.1288C28.0284 19.485 28.0176 18.8356 28.0176 18.8079H28.3544H28.186L28.3544 18.8052C28.3544 18.8273 28.3761 19.3192 29.0906 19.8553C29.3785 20.0708 29.5578 20.4162 29.6067 20.8584C29.7045 21.7371 29.2807 22.8729 28.5283 23.7571L28.2349 24.0998Z" fill="url(#paint12_linear)"/>
<path d="M29.2241 21.5466C29.1181 21.1155 28.8981 20.7949 28.5857 20.6208C28.3059 20.4633 28.1157 20.3003 27.9881 20.1538L27.8359 20.4827C27.9826 20.6263 28.1701 20.7783 28.4254 20.9193C28.6536 21.0464 28.8193 21.2923 28.9008 21.6267C29.0747 22.3424 28.8655 23.3262 28.3657 24.1856L28.1891 24.2104L28.2842 24.9455L28.5341 24.5614C29.1616 23.5887 29.4332 22.4032 29.2241 21.5466Z" fill="url(#paint13_linear)"/>
<path d="M141.964 14.8462V32.7633H138.701V25.0845H129.616V32.7633H126.353V14.8462H129.616V22.2434H138.701V14.8462H141.964Z" fill="url(#paint14_linear)"/>
<path d="M151.716 33.0193C149.29 33.0193 147.399 32.3282 146.044 30.946C144.689 29.5468 144.011 27.5503 144.011 24.9566V14.8462H147.274V24.8286C147.274 28.3438 148.763 30.1013 151.741 30.1013C154.703 30.1013 156.183 28.3438 156.183 24.8286V14.8462H159.396V24.9566C159.396 27.5503 158.718 29.5468 157.363 30.946C156.024 32.3282 154.142 33.0193 151.716 33.0193Z" fill="url(#paint15_linear)"/>
<path d="M173.904 23.4464C174.874 23.7706 175.644 24.3167 176.213 25.0845C176.782 25.8354 177.066 26.7739 177.066 27.9001C177.066 29.4529 176.481 30.6559 175.309 31.5091C174.138 32.3452 172.431 32.7633 170.189 32.7633H161.455V14.8462H169.687C171.762 14.8462 173.36 15.2643 174.481 16.1004C175.602 16.9195 176.163 18.0542 176.163 19.5046C176.163 20.392 175.962 21.1769 175.56 21.8595C175.159 22.542 174.607 23.071 173.904 23.4464ZM164.718 17.457V22.397H169.336C170.474 22.397 171.344 22.1922 171.946 21.7827C172.565 21.3561 172.875 20.7418 172.875 19.9398C172.875 19.1207 172.565 18.5064 171.946 18.0969C171.344 17.6703 170.474 17.457 169.336 17.457H164.718ZM169.989 30.1525C172.515 30.1525 173.778 29.2908 173.778 27.5673C173.778 25.8439 172.515 24.9822 169.989 24.9822H164.718V30.1525H169.989Z" fill="url(#paint16_linear)"/>
<defs>
<linearGradient id="paint0_linear" x1="68.8736" y1="32.2383" x2="68.8736" y2="14.8377" gradientUnits="userSpaceOnUse">
<stop stop-color="#529DAD"/>
<stop offset="1" stop-color="#60C092"/>
</linearGradient>
<linearGradient id="paint1_linear" x1="86.8066" y1="32.6846" x2="86.8066" y2="18.9461" gradientUnits="userSpaceOnUse">
<stop stop-color="#529DAD"/>
<stop offset="1" stop-color="#60C092"/>
</linearGradient>
<linearGradient id="paint2_linear" x1="103.645" y1="32.5897" x2="103.645" y2="14.2206" gradientUnits="userSpaceOnUse">
<stop stop-color="#529DAD"/>
<stop offset="1" stop-color="#60C092"/>
</linearGradient>
<linearGradient id="paint3_linear" x1="119.337" y1="32.6418" x2="119.337" y2="14.847" gradientUnits="userSpaceOnUse">
<stop stop-color="#529DAD"/>
<stop offset="1" stop-color="#60C092"/>
</linearGradient>
<linearGradient id="paint4_linear" x1="24.2819" y1="34.2217" x2="24.2819" y2="9.66324" gradientUnits="userSpaceOnUse">
<stop stop-color="#529DAD"/>
<stop offset="1" stop-color="#60C092"/>
</linearGradient>
<linearGradient id="paint5_linear" x1="35.9527" y1="39.6991" x2="35.9527" y2="8.75159" gradientUnits="userSpaceOnUse">
<stop stop-color="#529DAD"/>
<stop offset="1" stop-color="#60C092"/>
</linearGradient>
<linearGradient id="paint6_linear" x1="20.9799" y1="14.5995" x2="20.9799" y2="1.33999" gradientUnits="userSpaceOnUse">
<stop stop-color="#529DAD"/>
<stop offset="1" stop-color="#60C092"/>
</linearGradient>
<linearGradient id="paint7_linear" x1="16.2734" y1="45.3458" x2="16.2734" y2="18.3102" gradientUnits="userSpaceOnUse">
<stop stop-color="#529DAD"/>
<stop offset="1" stop-color="#60C092"/>
</linearGradient>
<linearGradient id="paint8_linear" x1="18.3863" y1="28.7499" x2="18.3863" y2="25.1407" gradientUnits="userSpaceOnUse">
<stop stop-color="#529DAD"/>
<stop offset="1" stop-color="#60C092"/>
</linearGradient>
<linearGradient id="paint9_linear" x1="24.1989" y1="20.9282" x2="24.1989" y2="14.118" gradientUnits="userSpaceOnUse">
<stop stop-color="#529DAD"/>
<stop offset="1" stop-color="#60C092"/>
</linearGradient>
<linearGradient id="paint10_linear" x1="26.7868" y1="29.2299" x2="26.7868" y2="22.6143" gradientUnits="userSpaceOnUse">
<stop stop-color="#529DAD"/>
<stop offset="1" stop-color="#60C092"/>
</linearGradient>
<linearGradient id="paint11_linear" x1="16.0962" y1="22.5363" x2="16.0962" y2="16.0498" gradientUnits="userSpaceOnUse">
<stop stop-color="#529DAD"/>
<stop offset="1" stop-color="#60C092"/>
</linearGradient>
<linearGradient id="paint12_linear" x1="29.003" y1="24.002" x2="29.003" y2="18.9582" gradientUnits="userSpaceOnUse">
<stop stop-color="#529DAD"/>
<stop offset="1" stop-color="#60C092"/>
</linearGradient>
<linearGradient id="paint13_linear" x1="28.732" y1="24.857" x2="28.732" y2="20.2923" gradientUnits="userSpaceOnUse">
<stop stop-color="#529DAD"/>
<stop offset="1" stop-color="#60C092"/>
</linearGradient>
<linearGradient id="paint14_linear" x1="157.528" y1="32.6837" x2="157.528" y2="15.3714" gradientUnits="userSpaceOnUse">
<stop stop-color="#529DAD"/>
<stop offset="1" stop-color="#60C092"/>
</linearGradient>
<linearGradient id="paint15_linear" x1="157.528" y1="32.6837" x2="157.528" y2="15.3714" gradientUnits="userSpaceOnUse">
<stop stop-color="#529DAD"/>
<stop offset="1" stop-color="#60C092"/>
</linearGradient>
<linearGradient id="paint16_linear" x1="157.528" y1="32.6837" x2="157.528" y2="15.3714" gradientUnits="userSpaceOnUse">
<stop stop-color="#529DAD"/>
<stop offset="1" stop-color="#60C092"/>
</linearGradient>
</defs>
</svg>
