<svg width="62" height="65" viewBox="0 0 62 65" fill="none" xmlns="http://www.w3.org/2000/svg">
<path fill-rule="evenodd" clip-rule="evenodd" d="M10.1215 14.2611C10.1609 14.5205 10.2001 14.7779 10.2001 15.0435C10.2001 17.8541 7.91014 20.1439 5.10109 20.1356C2.28785 20.1356 0 17.8499 0 15.0393C0 12.2288 2.28785 9.9431 5.10109 9.9431C6.56003 9.9431 7.87037 10.5663 8.80183 11.5533L26.4118 1.22701C29.2439 -0.408305 32.7562 -0.408305 35.582 1.22283L49.8994 9.48095L48.3986 12.0803L34.0812 3.82218C32.1806 2.7264 29.8195 2.7264 27.9189 3.82218L10.1205 14.2551L10.1215 14.2611ZM5.09481 12.944C3.93728 12.944 2.99325 13.885 2.99325 15.0435C2.99325 16.202 3.93728 17.1431 5.09481 17.1431C6.25234 17.1431 7.19636 16.202 7.19636 15.0435C7.19636 13.8871 6.25443 12.944 5.09481 12.944ZM62 15.0435C62 12.2329 59.7121 9.94726 56.8989 9.94726C54.0857 9.94726 51.7978 12.2329 51.7978 15.0435C51.7978 17.3292 53.3217 19.2447 55.3981 19.893V40.7171C55.3981 42.9086 54.2175 44.9496 52.3169 46.0454L37.9284 54.3454L39.4292 56.9447L53.8177 48.6448C56.6435 47.0137 58.3997 43.9752 58.3997 40.7171V19.893C60.4762 19.2447 62 17.3313 62 15.0435ZM56.8947 17.1431C55.7351 17.1431 54.7932 16.1999 54.7932 15.0435C54.7932 13.885 55.7372 12.9439 56.8947 12.9439C58.0502 12.9439 58.9963 13.8871 58.9963 15.0435C59.0005 16.202 58.0543 17.1431 56.8947 17.1431ZM31.2533 11.5449C20.9612 11.5449 12.5863 19.9118 12.5863 30.1942C12.5863 40.4766 20.957 48.8392 31.2491 48.8392C41.5413 48.8392 49.9162 40.4766 49.9162 30.1942C49.9162 19.9118 41.5455 11.5449 31.2533 11.5449ZM31.2533 44.8409C23.1716 44.8409 16.5927 38.2683 16.5927 30.1942C16.5927 22.1159 23.1716 15.5475 31.2533 15.5475C39.3351 15.5475 45.914 22.1201 45.914 30.1942C45.9161 38.2704 39.3372 44.8409 31.2533 44.8409ZM31.2533 54.7992C29.809 54.7992 28.5133 55.4078 27.584 56.3739L9.68306 46.0497C7.78245 44.9539 6.60189 42.9108 6.60189 40.7213V23.9458H3.60027V40.7193C3.60027 43.9773 5.35645 47.0158 8.18225 48.647L26.2401 59.0653C26.192 59.3413 26.1564 59.6174 26.1564 59.9038C26.1564 62.7144 28.4443 65.0001 31.2575 65.0001C34.0707 65.0001 36.3586 62.7144 36.3586 59.9038C36.3607 57.0933 34.0665 54.7992 31.2533 54.7992ZM31.2533 61.995C30.0937 61.995 29.1517 61.0519 29.1517 59.8955C29.1517 58.737 30.0958 57.7959 31.2533 57.7959C32.4087 57.7959 33.3549 58.739 33.3549 59.8955C33.3549 61.0561 32.4108 61.995 31.2533 61.995ZM23.4771 37.597C23.4771 36.083 24.7058 34.8555 26.2213 34.8555C27.7367 34.8555 28.9654 36.083 28.9654 37.597C28.9654 39.1069 27.7388 40.3344 26.2213 40.3344C24.7058 40.3344 23.4771 39.111 23.4771 37.597ZM33.7065 27.7872V29.111H34.7426V27.7872C35.4312 27.6952 36.0592 27.4317 36.5825 27.0281L37.5181 27.9629L38.2508 27.231L37.3151 26.2962C37.7191 25.7734 37.9828 25.144 38.0749 24.4581H39.3999V23.4229H38.0749C37.9828 22.7349 37.7191 22.1076 37.3151 21.5848L38.2508 20.65L37.5181 19.9181L36.5825 20.8528C36.055 20.4492 35.4291 20.1858 34.7426 20.0937V18.77H33.7065V20.0937C33.0178 20.1858 32.3898 20.4492 31.8666 20.8528L30.9309 19.9181L30.1983 20.65L31.1339 21.5848C30.73 22.1117 30.4662 22.737 30.3741 23.4229H29.0491V24.4581H30.3741C30.4662 25.1461 30.73 25.7734 31.1339 26.2962L30.1983 27.231L30.9309 27.9629L31.8666 27.0281C32.394 27.4317 33.0178 27.6952 33.7065 27.7872ZM42.9584 32.1683C42.9584 32.1683 42.8935 37.3064 38.5522 40.2403C34.2068 43.1742 30.7991 37.9776 35.6155 35.6459C37.7035 34.6341 39.2545 33.3115 40.3842 32.3481C41.9419 31.0198 42.6988 30.3744 42.9584 32.1683Z" fill="url(#paint0_linear)"/>
<defs>
<linearGradient id="paint0_linear" x1="38.113" y1="63.7998" x2="38.113" y2="1.87849" gradientUnits="userSpaceOnUse">
<stop stop-color="#529DAD"/>
<stop offset="1" stop-color="#60C092"/>
</linearGradient>
</defs>
</svg>
