<svg width="26" height="38" viewBox="0 0 26 38" fill="none" xmlns="http://www.w3.org/2000/svg">
<path d="M0.823184 19.4878C0.874795 19.5673 0.94199 19.6423 1.03779 19.6962L13.0278 0.955341L13.0271 0.955164C13.0203 0.953313 13.008 0.95 12.9937 0.95C12.9796 0.95 12.9678 0.953251 12.9615 0.954973L12.961 0.955105C12.9535 0.957148 12.9527 0.957235 12.9521 0.957265L12.9521 0.957235L12.9504 0.957386C12.9452 0.957832 12.9395 0.958217 12.9333 0.95863C12.9152 0.959842 12.8936 0.961291 12.8732 0.965197M0.823184 19.4878C0.809551 19.4678 0.799957 19.4455 0.792549 19.4284C0.790656 19.424 0.788906 19.4199 0.787267 19.4163L0.832782 19.3956M0.823184 19.4878C0.82307 19.4876 0.822955 19.4875 0.822841 19.4873L0.864792 19.4601M0.823184 19.4878C0.823302 19.488 0.82342 19.4882 0.823538 19.4883L0.864792 19.4601M0.832782 19.3956L0.787614 19.4171C0.753442 19.3451 0.73498 19.27 0.732517 19.1911C0.732245 19.1903 0.731562 19.1884 0.730016 19.1845L0.729941 19.1843C0.728661 19.181 0.726486 19.1755 0.724787 19.1695C0.722983 19.163 0.721229 19.1544 0.721515 19.1444L0.721622 19.1406L0.721759 19.1407C0.722951 19.1291 0.727105 19.1198 0.729356 19.1154C0.73824 19.0278 0.762496 18.939 0.817307 18.8567C0.817312 18.8567 0.817318 18.8567 0.817323 18.8567L12.4324 1.24212L12.4333 1.24082L12.4333 1.24083C12.4398 1.23166 12.4472 1.2254 12.4506 1.22261L12.4509 1.22232C12.4523 1.2212 12.4531 1.22048 12.4536 1.22005C12.4643 1.20516 12.4784 1.19007 12.4892 1.17864C12.4932 1.17433 12.4968 1.17053 12.4995 1.16747L12.5004 1.16648C12.5237 1.14135 12.5476 1.12058 12.5728 1.10034L12.573 1.10024C12.5761 1.09772 12.5794 1.09506 12.5828 1.09232C12.5985 1.07956 12.6167 1.06487 12.6367 1.05254L12.6383 1.05106L12.6387 1.05066C12.6414 1.048 12.6483 1.0413 12.6577 1.036L12.6596 1.0349L12.6597 1.03494C12.6711 1.02914 12.6826 1.02643 12.6886 1.02503L12.6896 1.02479C12.6969 1.02305 12.6976 1.02267 12.6975 1.0227L12.6982 1.02238L12.6982 1.02239C12.7277 1.00796 12.7568 0.997388 12.7866 0.987961L12.7872 0.987785C12.7903 0.986835 12.7935 0.985855 12.7968 0.984862C12.82 0.97775 12.8456 0.9699 12.8732 0.965197M0.832782 19.3956C0.801163 19.329 0.784377 19.2599 0.782425 19.1872L0.864792 19.4601M0.832782 19.3956C0.835139 19.4008 0.83737 19.406 0.839581 19.4111C0.846894 19.4279 0.854002 19.4443 0.864792 19.4601M12.8732 0.965197C12.8734 0.965164 12.8736 0.965131 12.8738 0.965098L12.8821 1.0144L12.8726 0.965309C12.8728 0.965272 12.873 0.965234 12.8732 0.965197ZM13.1204 0.966391C13.091 0.960316 13.063 0.959078 13.0384 0.958048L13.3335 1.03791C13.3203 1.03041 13.3074 1.02721 13.3002 1.02544C13.2914 1.02325 13.29 1.02287 13.2887 1.02227L13.2678 1.06768L13.2897 1.02275C13.2599 1.00819 13.2306 0.997969 13.2006 0.988375L13.1997 0.98808C13.1765 0.980461 13.1497 0.971702 13.1204 0.966391ZM13.1204 0.966391C13.1206 0.966442 13.1209 0.966492 13.1211 0.966543L13.1108 1.01548L13.1196 0.966262C13.1199 0.966305 13.1201 0.966348 13.1204 0.966391ZM13.4875 1.16792C13.4648 1.14356 13.4417 1.12185 13.4154 1.10029L13.4154 1.10026L13.4137 1.09895C13.4102 1.09636 13.406 1.09299 13.4012 1.08918C13.3887 1.07914 13.3723 1.06607 13.3562 1.05635L13.4508 1.20196M13.4875 1.16792L13.4508 1.20196M13.4875 1.16792C13.4875 1.1679 13.4874 1.16788 13.4874 1.16786L13.4508 1.20196M13.4875 1.16792C13.4902 1.17088 13.4933 1.17405 13.4965 1.17742C13.509 1.19039 13.5243 1.20634 13.5371 1.2245M13.4508 1.20196C13.4546 1.20595 13.4583 1.20984 13.462 1.2137C13.4749 1.2272 13.4875 1.24027 13.4981 1.25596M13.5371 1.2245C13.5362 1.22375 13.5358 1.22343 13.5358 1.22344C13.5358 1.22345 13.5371 1.22465 13.5382 1.22617L13.4981 1.25596M13.5371 1.2245C13.5375 1.2248 13.5379 1.22515 13.5384 1.22559L13.5388 1.22586C13.5421 1.22855 13.5505 1.23539 13.5572 1.24623M13.5371 1.2245C13.5379 1.22563 13.5387 1.22677 13.5395 1.22791L13.4981 1.25596M13.4981 1.25596L13.5572 1.24623M13.5572 1.24623L13.5568 1.2457L13.5149 1.27288L13.5578 1.24727C13.5576 1.24692 13.5574 1.24658 13.5572 1.24623ZM13.5572 1.24623L24.9663 18.8601L24.9664 18.8602C25.0186 18.9412 25.043 19.0268 25.0514 19.1126M13.5572 1.24623L25.0501 19.1891M25.0514 19.1126C25.051 19.1118 25.0506 19.1111 25.0503 19.1106L25.0501 19.1102C25.0484 19.1073 25.0488 19.1081 25.0488 19.1081C25.0489 19.1083 25.0491 19.1087 25.0494 19.1093C25.0499 19.1104 25.0506 19.1124 25.0512 19.1149L25.0024 19.126L25.0523 19.1217C25.052 19.1187 25.0517 19.1157 25.0514 19.1126ZM25.0514 19.1126C25.0542 19.1176 25.0593 19.1283 25.0598 19.1421C25.0609 19.1603 25.055 19.1756 25.0526 19.182L25.0523 19.183C25.051 19.1864 25.0504 19.1883 25.0501 19.1891M25.0501 19.1891V19.1872C25.0501 19.188 25.05 19.1886 25.05 19.1891C25.0499 19.1894 25.0499 19.1896 25.0499 19.1896C25.0499 19.1896 25.05 19.1894 25.0501 19.1891ZM1.03001 19.6867L1.03046 19.6873L1.03001 19.6867ZM24.9586 19.4864C24.9746 19.4616 24.9846 19.4385 24.9941 19.4163L24.7381 19.699C24.8369 19.6448 24.9048 19.5677 24.9583 19.487L24.9586 19.4864ZM13.329 25.9767L24.738 19.699L1.04752 19.7017L1.04809 19.702L12.6624 25.9779L12.6869 25.9343L12.6631 25.9783L12.6629 25.9782C12.6771 25.986 12.6914 25.9872 12.695 25.9877C12.6956 25.9878 12.6961 25.9879 12.6966 25.9879C12.7837 26.029 12.8828 26.061 12.9937 26.061C13.1038 26.061 13.2022 26.0295 13.2898 25.9874C13.2908 25.9872 13.2925 25.987 13.2954 25.9866L13.2959 25.9865C13.3015 25.9858 13.3142 25.984 13.3271 25.9777L13.3271 25.9777L13.329 25.9767ZM1.05539 19.7027C1.05621 19.7029 1.05486 19.7027 1.05325 19.7022L1.05539 19.7027ZM13.6511 3.75794L22.7484 17.804L13.6511 13.9557V3.75794ZM12.3367 3.72517V13.9522L3.04782 17.8119L12.3367 3.72517ZM12.3367 15.2895V24.3892L2.81599 19.2453L12.3367 15.2895ZM13.6511 24.3795V15.2958L22.985 19.2453L13.6511 24.3795Z" fill="current" stroke="current" stroke-width="1"/>
<path d="M24.1781 20.9537L24.1781 20.9537C24.4419 20.8143 24.7831 20.8544 24.9923 21.0657C25.2039 21.2789 25.2271 21.5985 25.0448 21.8352C25.0448 21.8352 25.0448 21.8352 25.0448 21.8352L13.5272 36.7944C13.5271 36.7945 13.527 36.7947 13.5269 36.7948L24.1781 20.9537ZM24.1781 20.9537L24.1775 20.954L12.9926 27.0441L1.81193 20.954L1.81193 20.954L1.81166 20.9539C1.54848 20.8126 1.20735 20.8548 0.996172 21.0655L0.996172 21.0655L0.995971 21.0657C0.784722 21.2789 0.761993 21.5985 0.943409 21.8351L0.943464 21.8352L12.4572 36.795L12.4574 36.7952C12.4677 36.8085 12.4806 36.8163 12.4864 36.8199L12.4871 36.8203C12.4906 36.8225 12.4922 36.8236 12.4928 36.8239C12.5179 36.8519 12.5436 36.8773 12.5739 36.9012L12.5747 36.9019C12.5756 36.9026 12.5765 36.9034 12.5785 36.9057C12.5799 36.9072 12.5818 36.9094 12.5845 36.9125L12.5846 36.9126C12.5898 36.9187 12.5992 36.9295 12.6127 36.9382C12.6288 36.9489 12.646 36.9511 12.6513 36.9519C12.6533 36.9522 12.6546 36.9525 12.6555 36.9526C12.6611 36.9557 12.6666 36.9594 12.6745 36.9648L12.6785 36.9675C12.688 36.9739 12.7006 36.9822 12.7155 36.989L12.7157 36.9891C12.7983 37.026 12.8907 37.0499 12.9902 37.0499H12.9902H12.9903H12.9903H12.9903H12.9903H12.9903H12.9903H12.9903H12.9904H12.9904H12.9904H12.9904H12.9904H12.9904H12.9904H12.9905H12.9905H12.9905H12.9905H12.9905H12.9905H12.9906H12.9906H12.9906H12.9906H12.9906H12.9906H12.9906H12.9907H12.9907H12.9907H12.9907H12.9907H12.9907H12.9907H12.9908H12.9908H12.9908H12.9908H12.9908H12.9908H12.9908H12.9909H12.9909H12.9909H12.9909H12.9909H12.9909H12.991H12.991H12.991H12.991H12.991H12.991H12.991H12.9911H12.9911H12.9911H12.9911H12.9911H12.9911H12.9912H12.9912H12.9912H12.9912H12.9912H12.9912H12.9912H12.9913H12.9913H12.9913H12.9913H12.9913H12.9913H12.9914H12.9914H12.9914H12.9914H12.9914H12.9915H12.9915H12.9915H12.9915H12.9915H12.9915H12.9915H12.9916H12.9916H12.9916H12.9916H12.9916H12.9916H12.9916H12.9917H12.9917H12.9917H12.9917H12.9917H12.9917H12.9917H12.9918H12.9918H12.9918H12.9918H12.9918H12.9918H12.9919H12.9919H12.9919H12.9919H12.9919H12.9919H12.9919H12.992H12.992H12.992H12.992H12.992H12.992H12.9921H12.9921H12.9921H12.9921H12.9921H12.9921H12.9922H12.9922H12.9922H12.9922H12.9922H12.9922H12.9923H12.9923H12.9923H12.9923H12.9923H12.9923H12.9924H12.9924H12.9924H12.9924H12.9924H12.9924H12.9925H12.9925H12.9925H12.9925H12.9925H12.9925H12.9925H12.9926H12.9926H12.9926H12.9926H12.9926H12.9926H12.9927H12.9927H12.9927H12.9927H12.9927H12.9927H12.9927H12.9928H12.9928H12.9928H12.9928H12.9928H12.9928H12.9928H12.9929H12.9929H12.9929H12.9929H12.9929H12.9929H12.9929H12.993H12.993H12.993H12.993H12.993H12.993H12.993H12.9931H12.9931H12.9931H12.9931H12.9931H12.9931H12.9932H12.9932H12.9932H12.9932H12.9932H12.9932H12.9932H12.9933H12.9933H12.9933H12.9933H12.9933H12.9933H12.9933H12.9934H12.9934H12.9934H12.9934H12.9934H12.9934H12.9934H12.9935H12.9935H12.9935H12.9935H12.9935H12.9935H12.9936H12.9936H12.9936H12.9936H12.9936H12.9936H12.9936H12.9937H12.9937H12.9937H12.9937H12.9937H12.9937H12.9937H12.9938H12.9938H12.9938H12.9938H12.9938H12.9938H12.9939H12.9939H12.9939H12.9939H12.9939H12.9939H12.9939H12.994H12.994H12.994H12.994H12.994H12.994H12.9941H12.9941H12.9941H12.9941C13.0938 37.0499 13.1857 37.0256 13.2684 36.9892L13.2483 36.9434M24.1781 20.9537L13.3439 36.8966M13.3439 36.8966L13.371 36.9386C13.3708 36.9388 13.3705 36.9389 13.3703 36.9391C13.3553 36.9485 13.3395 36.9508 13.3335 36.9517C13.3331 36.9517 13.3328 36.9518 13.3324 36.9518C13.3312 36.952 13.3302 36.9522 13.3295 36.9523C13.324 36.9554 13.319 36.9588 13.312 36.9636C13.3101 36.9649 13.3081 36.9663 13.3059 36.9677C13.2961 36.9743 13.2834 36.9826 13.2682 36.9893L13.2483 36.9434M13.3439 36.8966C13.338 36.9004 13.3315 36.9014 13.325 36.9024C13.3184 36.9034 13.3119 36.9044 13.306 36.9081C13.2981 36.9126 13.2905 36.9177 13.283 36.9229C13.272 36.9303 13.261 36.9379 13.2483 36.9434M13.3439 36.8966L12.7361 36.9434C12.8134 36.978 12.8989 36.9999 12.9902 36.9999H12.9914H12.9922H12.993H12.9941C13.0855 36.9999 13.1706 36.9776 13.2483 36.9434M3.80763 23.4563L12.3356 28.1024V34.536L3.80763 23.4563ZM13.65 28.1024L22.1814 23.4563L13.65 34.5361V28.1024Z" fill="current" stroke="current" stroke-width="1"/>
</svg>
