<svg id="fixed" width="26" height="38" viewBox="0 0 26 38" fill="current" xmlns="http://www.w3.org/2000/svg">
	<path class="st0" d="M24.9,18.1C24.9,18.1,24.9,18.1,24.9,18.1C24.9,18.1,24.9,18.1,24.9,18.1C24.9,18.1,24.9,18.1,24.9,18.1
	c0-0.1,0-0.1,0-0.1c0,0,0,0,0,0c0,0,0,0,0-0.1c0,0,0,0,0,0c0,0,0,0,0,0c0,0,0,0,0-0.1c0,0,0,0,0,0c0,0,0,0,0,0c0,0,0,0,0-0.1
	c0,0,0,0,0,0c0,0,0,0,0,0l0,0l-11-17.3C13.6,0.2,13.3,0,13,0c-0.3,0-0.6,0.2-0.7,0.4l-11,17.3c0,0,0,0.1,0,0.1c0,0,0,0,0,0
	c0,0,0,0,0,0.1c0,0,0,0.1,0,0.2c0,0.1,0,0.1,0,0.2c0,0,0,0,0,0c0,0,0,0.1,0,0.1c0,0,0,0,0,0c0,0,0,0.1,0,0.1c0,0,0,0,0,0
	c0,0,0,0,0,0c0,0,0,0,0,0.1c0,0,0,0,0,0c0,0,0,0,0,0.1c0,0,0,0,0,0c0,0,0,0,0,0.1c0,0,0,0,0,0c0,0,0,0,0,0c0,0,0,0,0.1,0.1
	c0,0,0,0,0,0c0,0,0.1,0.1,0.1,0.1c0,0,0,0,0,0c0,0,0,0,0,0c0,0,0,0,0,0l11,6.3c0.3,0.2,0.7,0.2,1,0l11-6.3c0,0,0,0,0,0
	c0,0,0,0,0.1,0c0,0,0,0,0,0c0,0,0,0,0,0c0,0,0,0,0,0c0,0,0,0,0,0c0,0,0,0,0,0c0,0,0,0,0,0c0,0,0,0,0.1-0.1c0,0,0,0,0-0.1
	c0,0,0,0,0,0c0,0,0,0,0,0c0,0,0,0,0-0.1c0,0,0,0,0,0c0,0,0,0,0-0.1c0,0,0,0,0,0c0,0,0,0,0,0c0,0,0,0,0-0.1c0,0,0,0,0,0c0,0,0,0,0,0
	c0,0,0,0,0-0.1c0,0,0,0,0-0.1c0,0,0,0,0,0C24.9,18.2,24.9,18.2,24.9,18.1C24.9,18.2,24.9,18.2,24.9,18.1z M12.2,23.1l-8.5-4.9
	l8.5-3.7V23.1z M12.2,12.9L4,16.4l8.2-13V12.9z M13.8,3.5l8.2,13l-8.2-3.5V3.5z M13.8,23.1v-8.5l8.5,3.7L13.8,23.1z" fill="current" />
	<path class="st0" d="M24.1,21.4c-0.1,0-0.3,0-0.4,0.1L13,27.6L2.3,21.5c-0.1-0.1-0.2-0.1-0.4-0.1c-0.4,0-0.8,0.3-0.8,0.8
	c0,0.2,0.1,0.3,0.2,0.5l11,15c0.2,0.4,0.7,0.5,1.1,0.3c0.1-0.1,0.2-0.2,0.3-0.3l11-15c0.3-0.4,0.2-0.8-0.2-1.1
	C24.4,21.4,24.3,21.4,24.1,21.4z M12.2,34.8L4.8,24.7l7.4,4.2V34.8z M13.8,34.8V29l7.4-4.2L13.8,34.8z" fill="current" />
</svg>
