<svg viewBox="0 0 80 80" fill="none" xmlns="http://www.w3.org/2000/svg">
  <path d="M0 39.5C0 28.5963 3.85742 19.2871 11.5723 11.5723C19.2871 3.85742 28.5963 0 39.5 0C50.4036 0 59.7128 3.85742 67.4277 11.5723C75.1425 19.2871 79 28.5963 79 39.5C79 50.4036 75.1426 59.7128 67.4277 67.4277C59.7129 75.1425 50.4037 79 39.5 79C28.5963 79 19.2871 75.1426 11.5723 67.4277C3.85742 59.7129 0 50.4035 0 39.5ZM4.32031 39.5C4.32031 49.1693 7.76627 57.4498 14.6582 64.3418C21.5501 71.2337 29.8307 74.6797 39.5 74.6797C49.1693 74.6797 57.4499 71.2337 64.3418 64.3418C71.2337 57.4499 74.6797 49.1693 74.6797 39.5C74.6797 29.8307 71.2338 21.5501 64.3418 14.6582C57.4499 7.76627 49.1692 4.32031 39.5 4.32031C29.8307 4.32031 21.5502 7.76627 14.6582 14.6582C7.76627 21.5501 4.32031 29.8307 4.32031 39.5ZM15.4297 47.9863C15.224 47.7805 15.224 47.5748 15.4297 47.3691C15.8411 46.9576 16.3555 46.8033 16.9726 46.9062C17.5898 47.0091 17.9499 47.1119 18.0527 47.2148C18.7728 47.5234 19.57 48.2177 20.4443 49.2978C21.3185 50.3779 22.0129 51.1236 22.5273 51.5351C24.9961 53.5924 27.5162 53.7467 30.0878 51.998C30.2935 51.2779 30.6279 50.6608 31.0907 50.1464C31.5535 49.632 31.9908 49.2721 32.4022 49.0663C32.8138 48.8605 33.5338 48.552 34.5625 48.1405C31.1679 47.8319 28.4163 47.2404 26.3075 46.366C24.1988 45.4917 22.5272 44.3859 21.2929 43.0487C19.647 41.1971 18.6441 38.7798 18.284 35.7968C17.9239 32.8137 18.1554 30.0878 18.9784 27.619C19.5956 26.0761 20.47 24.6875 21.6014 23.453C20.7785 20.8814 20.9328 17.9498 22.0643 14.6581C25.3559 14.8638 28.339 15.9953 31.0135 18.0526C36.1567 16.7154 41.5057 16.664 47.0603 17.8983C47.7803 17.384 48.8861 16.7412 50.3776 15.9696C51.8691 15.1981 53.7464 14.7609 56.0095 14.658C56.4209 15.7895 56.7038 17.1268 56.8581 18.6697C57.0124 20.2127 56.9353 21.6528 56.6267 22.9901C58.9925 25.4588 60.2269 28.7505 60.3298 32.865C60.3298 36.1567 59.7641 38.8826 58.6326 41.0428C57.5011 43.2029 55.4952 45.003 52.615 46.4431C50.6606 47.3689 48.089 47.9346 44.9002 48.1403C46.3404 48.8604 47.3947 49.6062 48.0633 50.3777C48.732 51.1492 49.1691 52.3578 49.375 54.0036V58.8641L49.5292 63.5701C49.8378 64.0845 50.1979 64.5216 50.6093 64.8817C51.0208 65.2418 51.3808 65.4989 51.6894 65.6532C51.9979 65.8075 52.1009 66.039 51.9979 66.3476C51.895 66.6562 51.4836 66.8105 50.7636 66.8105C49.0148 66.8105 47.6263 66.1933 46.5976 64.9588C46.289 64.4445 46.1347 63.8274 46.1347 63.1073V55.701C46.1347 54.8781 45.929 54.2866 45.5175 53.9266C45.1061 53.5665 44.6946 53.3351 44.2832 53.2322V62.9529C44.2832 64.7016 44.4889 65.8331 44.9003 66.3474C45.3118 66.8618 45.569 67.3762 45.6719 67.8904C45.7748 67.9933 45.6976 68.0704 45.4404 68.1218C45.1833 68.1732 44.7461 68.0961 44.1289 67.8904C42.7916 67.5818 41.8658 66.8874 41.3515 65.8074C40.8372 64.7273 40.58 63.57 40.58 62.3356V52.7695H38.5742V62.3359C38.5742 63.5702 38.3169 64.7533 37.8026 65.8847C37.0826 67.3249 35.7453 68.0963 33.791 68.1992C33.4824 68.0963 33.3281 67.9934 33.3281 67.8906C33.431 67.7877 33.7395 67.2734 34.2539 66.3477C34.3567 66.1419 34.4854 65.7305 34.6397 65.1133C34.794 64.4961 34.8711 63.7761 34.8711 62.9531V53.2324C34.4597 53.3352 34.0739 53.5666 33.7139 53.9267C33.3538 54.2868 33.1738 54.8783 33.1738 55.7012V63.1074C33.1738 63.8274 33.0195 64.4447 32.7109 64.959C31.7851 66.1934 30.3965 66.8106 28.545 66.8106C27.8249 66.8106 27.4135 66.6563 27.3106 66.3477C27.2077 66.142 27.2334 65.962 27.3878 65.8077C27.5422 65.6534 27.7736 65.4733 28.0822 65.2676C28.3908 65.0619 28.5965 64.9075 28.6993 64.8047C29.1108 64.4961 29.4193 64.0846 29.6251 63.5703C29.9337 63.1589 30.0108 62.0788 29.8565 60.3301C29.7022 58.5814 29.6765 57.4499 29.7793 56.9356C27.1048 57.8613 24.379 57.3984 21.6015 55.5469C20.7786 54.724 19.9557 53.541 19.1328 51.9981C18.5156 50.8665 17.2812 49.5292 15.4297 47.9863Z" fill="current" fill-opacity="0.75"/>
</svg>
