<svg width="78" height="96" viewBox="0 0 78 96" fill="none" xmlns="http://www.w3.org/2000/svg">
<path d="M7.99997 0.000266685C3.61411 0.000266685 0 3.61437 0 8.00024V87.9999C0 92.3858 3.61411 95.9999 7.99997 95.9999H29.3332C29.6866 96.0049 30.0374 95.9396 30.3653 95.8079C30.6933 95.6761 30.9917 95.4805 31.2434 95.2323C31.495 94.9842 31.6948 94.6886 31.8312 94.3625C31.9676 94.0365 32.0379 93.6867 32.0379 93.3333C32.0379 92.9799 31.9676 92.63 31.8312 92.304C31.6948 91.9779 31.495 91.6823 31.2434 91.4342C30.9917 91.1861 30.6933 90.9904 30.3653 90.8587C30.0374 90.7269 29.6866 90.6616 29.3332 90.6666H7.99997C6.47652 90.6666 5.33331 89.5234 5.33331 87.9999V8.00024C5.33331 6.47679 6.47652 5.33358 7.99997 5.33358H29.3332C29.6866 5.33858 30.0374 5.2733 30.3653 5.14153C30.6933 5.00976 30.9917 4.81413 31.2434 4.56601C31.495 4.31789 31.6948 4.02223 31.8312 3.69622C31.9676 3.3702 32.0379 3.02032 32.0379 2.66692C32.0379 2.31352 31.9676 1.96365 31.8312 1.63763C31.6948 1.31161 31.495 1.01595 31.2434 0.767837C30.9917 0.519719 30.6933 0.324092 30.3653 0.192322C30.0374 0.0605525 29.6866 -0.00473076 29.3332 0.000266685H7.99997ZM55.6248 23.9585C55.1381 24.0195 54.6777 24.2136 54.2942 24.5193C53.9106 24.825 53.6188 25.2306 53.4509 25.6914C53.2829 26.1523 53.2453 26.6505 53.3421 27.1313C53.439 27.6122 53.6665 28.057 53.9998 28.4168L68.7914 45.3334H21.3333C21.25 45.3295 21.1665 45.3295 21.0833 45.3334C20.733 45.3498 20.3894 45.435 20.0721 45.5841C19.7548 45.7333 19.47 45.9435 19.2339 46.2027C18.9978 46.4619 18.8151 46.7651 18.6963 47.095C18.5774 47.4248 18.5246 47.7749 18.5411 48.1251C18.5575 48.4753 18.6427 48.8189 18.7919 49.1362C18.9412 49.4535 19.1514 49.7383 19.4107 49.9743C19.67 50.2103 19.9732 50.3929 20.3031 50.5118C20.633 50.6306 20.983 50.6832 21.3333 50.6667H68.7914L53.9998 67.5417C53.5336 68.0726 53.2967 68.7666 53.341 69.4718C53.3852 70.177 53.7071 70.836 54.2362 71.3044C54.7652 71.7728 55.4582 72.0125 56.1636 71.9711C56.869 71.9297 57.5292 71.6104 57.9998 71.0833L76.6664 49.7501C77.0998 49.262 77.3392 48.632 77.3392 47.9793C77.3392 47.3265 77.0998 46.6965 76.6664 46.2084L57.9998 24.8752C57.7117 24.5365 57.3435 24.2753 56.9287 24.1152C56.5139 23.9551 56.0657 23.9012 55.6248 23.9585Z" fill="white"/>
</svg>
